<?xml version="1.0" encoding="UTF-8"?>
<!DOCTYPE svg PUBLIC "-//W3C//DTD SVG 1.1//EN" "http://www.w3.org/Graphics/SVG/1.1/DTD/svg11.dtd">
<svg xmlns="http://www.w3.org/2000/svg" version="1.1" width="122px" height="118px" style="shape-rendering:geometricPrecision; text-rendering:geometricPrecision; image-rendering:optimizeQuality; fill-rule:evenodd; clip-rule:evenodd" xmlns:xlink="http://www.w3.org/1999/xlink">
<g><path style="opacity:1" fill="#fdfefe" d="M -0.5,-0.5 C 40.1667,-0.5 80.8333,-0.5 121.5,-0.5C 121.5,38.8333 121.5,78.1667 121.5,117.5C 80.8333,117.5 40.1667,117.5 -0.5,117.5C -0.5,78.1667 -0.5,38.8333 -0.5,-0.5 Z"/></g>
<g><path style="opacity:1" fill="#90a6e0" d="M 39.5,26.5 C 31.8333,26.5 24.1667,26.5 16.5,26.5C 16.5,27.5 16.5,28.5 16.5,29.5C 15.5655,28.4324 15.2322,27.099 15.5,25.5C 23.6841,25.1743 31.6841,25.5076 39.5,26.5 Z"/></g>
<g><path style="opacity:1" fill="#92a6e0" d="M 71.5,26.5 C 63.8333,26.5 56.1667,26.5 48.5,26.5C 48.5,27.5 48.5,28.5 48.5,29.5C 47.5655,28.4324 47.2322,27.099 47.5,25.5C 55.6841,25.1743 63.6841,25.5076 71.5,26.5 Z"/></g>
<g><path style="opacity:1" fill="#8fa6df" d="M 104.5,29.5 C 104.5,28.5 104.5,27.5 104.5,26.5C 97.1667,26.5 89.8333,26.5 82.5,26.5C 82.5,27.5 82.5,28.5 82.5,29.5C 81.5655,28.4324 81.2322,27.099 81.5,25.5C 89.5,25.5 97.5,25.5 105.5,25.5C 105.768,27.099 105.434,28.4324 104.5,29.5 Z"/></g>
<g><path style="opacity:1" fill="#395abc" d="M 39.5,26.5 C 41.0652,28.5093 42.0652,30.8427 42.5,33.5C 42.3455,36.716 43.3455,39.3826 45.5,41.5C 47.1185,45.069 48.4519,48.7356 49.5,52.5C 49.5668,54.4008 49.2335,56.2341 48.5,58C 48.8178,60.3751 50.1511,61.5417 52.5,61.5C 53.5163,66.2281 54.8496,70.8948 56.5,75.5C 54.9497,80.1933 53.6164,84.86 52.5,89.5C 52.3893,90.1174 52.056,90.6174 51.5,91C 47.5138,91.4988 43.5138,91.6655 39.5,91.5C 36.6359,83.5745 33.9693,75.5745 31.5,67.5C 29.5772,60.8926 27.7438,54.2259 26,47.5C 24.5952,46.2695 23.4286,44.9361 22.5,43.5C 20.2068,39.0465 18.2068,34.3798 16.5,29.5C 16.5,28.5 16.5,27.5 16.5,26.5C 24.1667,26.5 31.8333,26.5 39.5,26.5 Z"/></g>
<g><path style="opacity:1" fill="#385abd" d="M 77.5,43.5 C 81.6232,52.5921 85.4565,61.9254 89,71.5C 89.5379,78.0658 88.0379,84.0658 84.5,89.5C 80.5,89.5 76.5,89.5 72.5,89.5C 72.082,86.2351 70.9153,83.2351 69,80.5C 68.2829,76.9551 68.4496,73.4551 69.5,70C 69.0946,69.0546 68.428,68.3879 67.5,68C 68.0509,66.6015 68.3842,65.2682 68.5,64C 66.6133,64.4229 64.6133,64.2563 62.5,63.5C 62.7709,61.6203 62.1042,60.287 60.5,59.5C 59.873,53.5844 57.873,48.2511 54.5,43.5C 52.7329,41.2084 51.7329,38.5418 51.5,35.5C 51.3059,32.6703 50.6392,30.0037 49.5,27.5C 56.5079,27.3337 63.5079,27.5004 70.5,28C 72.2338,32.1142 73.7338,36.2809 75,40.5C 75.8518,41.5707 76.6851,42.5707 77.5,43.5 Z"/></g>
<g><path style="opacity:1" fill="#5d74b4" d="M 42.5,33.5 C 43.871,35.936 44.871,38.6027 45.5,41.5C 43.3455,39.3826 42.3455,36.716 42.5,33.5 Z"/></g>
<g><path style="opacity:1" fill="#3658bd" d="M 104.5,29.5 C 101.036,38.5514 97.3698,47.5514 93.5,56.5C 89.6341,47.566 85.9674,38.566 82.5,29.5C 82.5,28.5 82.5,27.5 82.5,26.5C 89.8333,26.5 97.1667,26.5 104.5,26.5C 104.5,27.5 104.5,28.5 104.5,29.5 Z"/></g>
<g><path style="opacity:1" fill="#445ead" d="M 71.5,26.5 C 74.5606,31.7139 76.5606,37.3805 77.5,43.5C 76.6851,42.5707 75.8518,41.5707 75,40.5C 73.7338,36.2809 72.2338,32.1142 70.5,28C 63.5079,27.5004 56.5079,27.3337 49.5,27.5C 50.6392,30.0037 51.3059,32.6703 51.5,35.5C 49.9925,33.8185 48.9925,31.8185 48.5,29.5C 48.5,28.5 48.5,27.5 48.5,26.5C 56.1667,26.5 63.8333,26.5 71.5,26.5 Z"/></g>
<g><path style="opacity:1" fill="#435dab" d="M 54.5,43.5 C 57.873,48.2511 59.873,53.5844 60.5,59.5C 57.9025,54.4839 55.9025,49.1505 54.5,43.5 Z"/></g>
<g><path style="opacity:1" fill="#4a60a6" d="M 22.5,43.5 C 23.4286,44.9361 24.5952,46.2695 26,47.5C 27.7438,54.2259 29.5772,60.8926 31.5,67.5C 27.9024,59.817 24.9024,51.817 22.5,43.5 Z"/></g>
<g><path style="opacity:1" fill="#4d63b2" d="M 49.5,52.5 C 52.9706,59.7985 55.6373,67.4651 57.5,75.5C 56.7381,80.5821 55.0715,85.2488 52.5,89.5C 53.6164,84.86 54.9497,80.1933 56.5,75.5C 54.8496,70.8948 53.5163,66.2281 52.5,61.5C 50.1511,61.5417 48.8178,60.3751 48.5,58C 49.2335,56.2341 49.5668,54.4008 49.5,52.5 Z"/></g>
<g><path style="opacity:1" fill="#4660b6" d="M 60.5,59.5 C 62.1042,60.287 62.7709,61.6203 62.5,63.5C 64.6133,64.2563 66.6133,64.4229 68.5,64C 68.3842,65.2682 68.0509,66.6015 67.5,68C 68.428,68.3879 69.0946,69.0546 69.5,70C 68.4496,73.4551 68.2829,76.9551 69,80.5C 70.9153,83.2351 72.082,86.2351 72.5,89.5C 76.5,89.5 80.5,89.5 84.5,89.5C 84.3893,90.1174 84.056,90.6174 83.5,91C 79.5138,91.4988 75.5138,91.6655 71.5,91.5C 67.8476,80.8774 64.1809,70.2108 60.5,59.5 Z"/></g>
</svg>
