<svg xmlns="http://www.w3.org/2000/svg" xmlns:xlink="http://www.w3.org/1999/xlink"><symbol fill="none" viewBox="0 0 12 22" id="facebook" xmlns="http://www.w3.org/2000/svg"><path fill="#fff" d="M11.563.005 8.786 0c-3.12 0-5.137 2.125-5.137 5.414v2.497H.857c-.242 0-.437.2-.437.448v3.617c0 .248.196.449.437.449h2.792v9.126c0 .248.195.449.437.449h3.643a.443.443 0 0 0 .437-.449v-9.126h3.265c.241 0 .436-.2.436-.449l.002-3.617a.456.456 0 0 0-.128-.317.431.431 0 0 0-.31-.131H8.167V5.794c0-1.017.236-1.533 1.525-1.533h1.871c.242 0 .437-.202.437-.45V.454a.443.443 0 0 0-.436-.448Z"/></symbol><symbol fill="none" viewBox="0 0 22 18" id="twitter" xmlns="http://www.w3.org/2000/svg"><path fill="#fff" d="M21.5 2.772a8.902 8.902 0 0 1-2.474.65 4.18 4.18 0 0 0 1.894-2.28 8.922 8.922 0 0 1-2.737 1A4.387 4.387 0 0 0 15.038.84c-2.379 0-4.308 1.847-4.308 4.124 0 .323.038.638.112.94-3.58-.173-6.754-1.815-8.879-4.31a3.962 3.962 0 0 0-.583 2.073c0 1.431.762 2.694 1.916 3.433a4.455 4.455 0 0 1-1.95-.518v.052c0 1.997 1.485 3.665 3.454 4.044-.36.093-.741.145-1.135.145a4.31 4.31 0 0 1-.81-.077c.548 1.64 2.138 2.832 4.023 2.865a8.89 8.89 0 0 1-5.35 1.763c-.348 0-.69-.02-1.028-.057a12.572 12.572 0 0 0 6.603 1.856c7.925 0 12.257-6.285 12.257-11.736l-.015-.534a8.412 8.412 0 0 0 2.155-2.13Z"/></symbol><symbol fill="none" viewBox="0 0 20 20" id="whatsapp" xmlns="http://www.w3.org/2000/svg"><path fill="#fff" d="M20 9.742c0 5.381-4.395 9.743-9.818 9.743a9.835 9.835 0 0 1-4.746-1.212L0 20l1.772-5.227a9.64 9.64 0 0 1-1.409-5.03C.363 4.361 4.76 0 10.182 0 15.605 0 20 4.362 20 9.742Zm-9.818-8.19c-4.552 0-8.255 3.674-8.255 8.19 0 1.793.584 3.452 1.573 4.803l-1.032 3.042 3.172-1.009a8.25 8.25 0 0 0 4.542 1.355c4.551 0 8.255-3.674 8.255-8.19 0-4.517-3.703-8.191-8.255-8.191Zm4.958 10.434c-.06-.1-.221-.16-.462-.278-.24-.12-1.424-.698-1.644-.777-.22-.08-.382-.12-.542.12-.16.238-.621.776-.762.935-.14.16-.28.18-.522.06-.24-.119-1.015-.371-1.935-1.185-.715-.633-1.198-1.414-1.339-1.653-.14-.24-.014-.368.106-.487.108-.107.24-.279.361-.418.12-.14.16-.24.24-.399.081-.16.041-.298-.02-.418-.06-.12-.541-1.295-.742-1.773-.2-.478-.4-.398-.541-.398-.14 0-.3-.02-.461-.02-.16 0-.422.06-.642.299-.22.239-.842.816-.842 1.991 0 1.175.862 2.31.982 2.47.12.159 1.665 2.649 4.111 3.605 2.447.956 2.447.637 2.889.597.44-.04 1.423-.578 1.625-1.135.2-.558.2-1.036.14-1.136Z"/></symbol><symbol fill="none" viewBox="0 0 24 18" id="youtube" xmlns="http://www.w3.org/2000/svg"><path fill="#fff" fill-rule="evenodd" d="M21.39 1.114a3.007 3.007 0 0 1 2.116 2.115C24.02 5.107 24 9.021 24 9.021s0 3.895-.494 5.773a3.007 3.007 0 0 1-2.116 2.115c-1.878.495-9.39.495-9.39.495s-7.493 0-9.39-.514a3.007 3.007 0 0 1-2.116-2.116C0 12.916 0 9.002 0 9.002s0-3.895.494-5.773A3.068 3.068 0 0 1 2.61 1.094C4.488.6 12 .6 12 .6s7.513 0 9.391.514Zm-5.535 7.888L9.608 12.6V5.404l6.247 3.598Z" clip-rule="evenodd"/></symbol></svg>